<?xml version="1.0" encoding="UTF-8" standalone="no"?><!DOCTYPE svg PUBLIC "-//W3C//DTD SVG 1.1//EN" "http://www.w3.org/Graphics/SVG/1.1/DTD/svg11.dtd"><svg width="100%" height="100%" viewBox="0 0 1180 290" version="1.1" xmlns="http://www.w3.org/2000/svg" xmlns:xlink="http://www.w3.org/1999/xlink" xml:space="preserve" xmlns:serif="http://www.serif.com/" style="fill-rule:evenodd;clip-rule:evenodd;stroke-linecap:round;stroke-linejoin:round;stroke-miterlimit:1.5;"><g><g transform="matrix(0.998162,-0.0605964,0,1.00184,-0.110315,-0.40987)"><text x="521.427px" y="87.411px" style="font-family:'Manrope-ExtraLight_Bold', 'Manrope';font-weight:200;font-size:63.487px;fill:#fffcfc;">T<tspan x="578.139px 639.311px " y="87.411px 87.411px ">HE</tspan></text></g><g><g><path d="M1.048,235.807l32.291,-107.641l29.796,-1.808l32.291,103.72l-20.549,1.247l-6.784,-21.605l-39.809,2.417l-6.687,22.423l-20.549,1.247Zm32.906,-42.655l28.374,-1.723l-14.091,-46.08l-14.283,47.803Z" style="fill:none;stroke:#fff;stroke-width:2.08px;"/><path d="M205.232,184.128c-0.498,0.257 0.305,1.581 1.222,3.395c4.303,8.515 17.563,34.748 17.563,34.748l-22.433,1.362l-17.509,-34.751l-22.305,1.354l0,35.814l-19.962,1.212l0,-105.681l44.621,-2.708c1.027,-0.063 2.409,-0.11 4.146,-0.142c1.737,-0.032 3.291,0.033 4.661,0.194c6.311,0.595 11.485,2.361 15.521,5.296c4.037,2.935 7.009,6.754 8.917,11.458c1.908,4.703 2.862,10.015 2.862,15.935c0,8.855 -2.201,16.56 -6.605,23.115c-2.657,3.955 -6.224,7.089 -10.699,9.399m-43.462,-12.533l23.778,-1.443c1.028,-0.063 2.153,-0.18 3.376,-0.352c1.223,-0.172 2.349,-0.436 3.376,-0.792c2.691,-0.897 4.77,-2.259 6.238,-4.085c1.468,-1.826 2.483,-3.82 3.046,-5.983c0.562,-2.162 0.844,-4.197 0.844,-6.105c-0,-1.908 -0.282,-3.91 -0.844,-6.004c-0.563,-2.094 -1.578,-3.965 -3.046,-5.613c-1.468,-1.647 -3.547,-2.757 -6.238,-3.327c-1.027,-0.231 -2.153,-0.359 -3.376,-0.382c-1.223,-0.024 -2.348,-0.004 -3.376,0.058l-23.778,1.443l0,32.585Z" style="fill:none;fill-rule:nonzero;stroke:#fff;stroke-width:1.67px;stroke-linecap:butt;stroke-miterlimit:2;"/><path d="M275.523,219.144l0,-105.68l68.986,-4.188l0,18.641l-49.024,2.976l0,22.604l40.217,-2.442l0,18.641l-40.217,2.442l0,27.154l49.024,-2.977l0,18.641l-68.986,4.188Z" style="fill:none;fill-rule:nonzero;stroke:#fff;stroke-width:1.67px;stroke-linecap:butt;stroke-miterlimit:2;"/><path d="M442.704,211.197c-10.568,0.641 -19.681,-1.105 -27.338,-5.239c-7.657,-4.134 -13.552,-10.21 -17.686,-18.228c-4.135,-8.017 -6.202,-17.506 -6.202,-28.465c0,-10.96 2.067,-20.699 6.202,-29.219c4.134,-8.519 10.029,-15.311 17.686,-20.375c7.657,-5.064 16.77,-7.916 27.338,-8.558c10.568,-0.642 19.68,1.105 27.337,5.239c7.657,4.134 13.553,10.21 17.687,18.228c4.134,8.017 6.202,17.506 6.202,28.465c-0,10.96 -2.068,20.699 -6.202,29.219c-4.134,8.519 -10.03,15.311 -17.687,20.375c-7.657,5.063 -16.769,7.916 -27.337,8.558Zm-0,-18.788c6.703,-0.309 12.28,-2.091 16.733,-5.346c4.452,-3.254 7.791,-7.689 10.017,-13.304c2.226,-5.615 3.339,-12.092 3.339,-19.431c0,-7.339 -1.113,-13.632 -3.339,-18.878c-2.226,-5.247 -5.565,-9.227 -10.017,-11.942c-4.453,-2.714 -10.03,-3.916 -16.733,-3.607c-6.703,0.309 -12.281,2.091 -16.733,5.345c-4.452,3.255 -7.791,7.69 -10.017,13.305c-2.227,5.615 -3.34,12.092 -3.34,19.431c0,7.338 1.113,13.631 3.34,18.878c2.226,5.247 5.565,9.227 10.017,11.941c4.452,2.715 10.03,3.917 16.733,3.608Z" style="fill:none;fill-rule:nonzero;stroke:#fff;stroke-width:1.67px;stroke-linecap:butt;stroke-miterlimit:2;"/><path d="M545.008,202.784l0,-105.68l44.621,-2.709c1.027,-0.062 2.41,-0.109 4.147,-0.141c1.736,-0.033 3.29,0.032 4.66,0.194c6.311,0.595 11.485,2.36 15.522,5.295c4.036,2.936 7.008,6.755 8.916,11.458c1.908,4.704 2.863,10.015 2.863,15.935c-0,5.92 -0.967,11.349 -2.899,16.285c-1.933,4.937 -4.917,9.118 -8.954,12.543c-4.036,3.425 -9.186,5.817 -15.448,7.176c-1.37,0.279 -2.936,0.521 -4.697,0.725c-1.761,0.205 -3.131,0.337 -4.11,0.397l-24.659,1.497l0,35.814l-19.962,1.211Zm19.962,-55.666l23.778,-1.444c1.028,-0.062 2.153,-0.179 3.376,-0.351c1.223,-0.173 2.349,-0.437 3.376,-0.793c2.691,-0.897 4.77,-2.258 6.238,-4.084c1.468,-1.826 2.483,-3.821 3.046,-5.983c0.563,-2.162 0.844,-4.198 0.844,-6.106c-0,-1.908 -0.281,-3.909 -0.844,-6.003c-0.563,-2.094 -1.578,-3.965 -3.046,-5.613c-1.468,-1.648 -3.547,-2.757 -6.238,-3.328c-1.027,-0.231 -2.153,-0.358 -3.376,-0.382c-1.223,-0.023 -2.348,-0.004 -3.376,0.058l-23.778,1.444l0,32.585Z" style="fill:none;fill-rule:nonzero;stroke:#fff;stroke-width:1.67px;stroke-linecap:butt;stroke-miterlimit:2;"/><path d="M659.622,195.826l32.291,-107.64l29.796,-1.809l32.291,103.72l-20.549,1.247l-6.785,-21.604l-39.809,2.416l-6.687,22.423l-20.548,1.247Zm32.906,-42.655l28.374,-1.722l-14.091,-46.081l-14.283,47.803Z" style="fill:none;stroke:#fff;stroke-width:2.08px;"/><path d="M841.501,186.987c-6.654,0.404 -12.99,-0.398 -19.008,-2.406c-6.018,-2.007 -11.339,-5.195 -15.962,-9.562c-4.624,-4.367 -8.269,-9.895 -10.935,-16.583c-2.667,-6.688 -4,-14.508 -4,-23.462c0,-11.693 2.238,-21.773 6.715,-30.24c4.477,-8.467 10.495,-15.083 18.054,-19.847c7.559,-4.764 15.938,-7.426 25.136,-7.984c13.601,-0.826 24.292,1.681 32.071,7.52c7.779,5.839 12.99,14.452 15.632,25.838l-20.402,4.174c-1.909,-6.049 -5.028,-10.788 -9.358,-14.22c-4.33,-3.431 -9.87,-4.966 -16.622,-4.605c-6.703,0.309 -12.281,2.091 -16.733,5.346c-4.452,3.255 -7.791,7.69 -10.018,13.305c-2.226,5.614 -3.339,12.091 -3.339,19.43c0,7.339 1.113,13.632 3.339,18.879c2.227,5.246 5.566,9.227 10.018,11.941c4.452,2.714 10.03,3.917 16.733,3.608c4.55,-0.179 8.672,-1.212 12.366,-3.099c3.694,-1.888 6.813,-4.695 9.357,-8.421c2.544,-3.726 4.354,-8.411 5.431,-14.054l-16.733,1.016l0,-15.411l38.016,-2.308c0.097,0.63 0.171,1.751 0.22,3.362c0.049,1.612 0.073,2.54 0.073,2.785c0,10.127 -2.055,19.23 -6.165,27.308c-4.109,8.077 -9.907,14.557 -17.393,19.44c-7.485,4.882 -16.317,7.632 -26.493,8.25Z" style="fill:none;fill-rule:nonzero;stroke:#fff;stroke-width:1.67px;stroke-linecap:butt;stroke-miterlimit:2;"/><path d="M985.344,178.254c-8.514,0.517 -15.999,-0.753 -22.458,-3.81c-6.458,-3.058 -11.497,-7.608 -15.118,-13.65c-3.62,-6.043 -5.431,-13.297 -5.431,-21.761l0,-65.903l20.256,-1.377l-0,65.904c-0,3.474 0.587,6.594 1.761,9.36c1.174,2.766 2.801,5.114 4.881,7.043c2.079,1.928 4.501,3.359 7.265,4.292c2.764,0.933 5.712,1.305 8.844,1.115c3.229,-0.196 6.225,-0.941 8.99,-2.234c2.764,-1.293 5.174,-3.03 7.229,-5.209c2.054,-2.18 3.657,-4.723 4.807,-7.631c1.149,-2.908 1.724,-6.074 1.724,-9.499l0,-65.903l20.256,-1.23l-0,66.051c-0,8.464 -1.811,15.937 -5.431,22.419c-3.621,6.483 -8.66,11.645 -15.118,15.486c-6.459,3.841 -13.944,6.02 -22.457,6.537Z" style="fill:none;fill-rule:nonzero;stroke:#fff;stroke-width:1.67px;stroke-linecap:butt;stroke-miterlimit:2;"/><path d="M1123.17,169.887c-7.828,0.475 -14.885,-0.478 -21.172,-2.861c-6.287,-2.383 -11.449,-6.032 -15.485,-10.949c-4.037,-4.917 -6.593,-10.914 -7.67,-17.992l20.843,-4.347c1.468,5.977 4.501,10.466 9.1,13.464c4.599,2.999 9.834,4.321 15.705,3.964c3.279,-0.199 6.459,-0.906 9.541,-2.12c3.082,-1.215 5.614,-2.885 7.596,-5.011c1.981,-2.127 2.972,-4.658 2.972,-7.593c0,-1.077 -0.159,-2.107 -0.477,-3.09c-0.318,-0.984 -0.844,-1.894 -1.578,-2.73c-0.734,-0.836 -1.773,-1.605 -3.119,-2.306c-1.345,-0.701 -3.045,-1.307 -5.1,-1.819l-27.448,-6.406c-2.055,-0.462 -4.44,-1.149 -7.155,-2.061c-2.716,-0.911 -5.346,-2.293 -7.89,-4.144c-2.544,-1.852 -4.66,-4.378 -6.348,-7.578c-1.688,-3.2 -2.532,-7.32 -2.532,-12.359c0,-7.094 1.786,-13.098 5.358,-18.012c3.571,-4.914 8.341,-8.702 14.31,-11.363c5.969,-2.662 12.574,-4.189 19.816,-4.579c7.29,-0.345 13.797,0.508 19.521,2.557c5.724,2.05 10.519,5.245 14.384,9.585c3.866,4.34 6.654,9.761 8.367,16.262l-21.577,4.979c-0.783,-3.377 -2.226,-6.176 -4.33,-8.397c-2.103,-2.221 -4.611,-3.854 -7.522,-4.901c-2.911,-1.046 -5.957,-1.522 -9.137,-1.427c-3.131,0.093 -6.079,0.7 -8.843,1.822c-2.765,1.121 -5.015,2.64 -6.752,4.556c-1.737,1.916 -2.606,4.121 -2.606,6.616c0,2.3 0.71,4.128 2.129,5.485c1.419,1.358 3.204,2.411 5.357,3.161c2.153,0.75 4.355,1.35 6.605,1.801l18.348,3.877c2.739,0.567 5.773,1.349 9.1,2.346c3.327,0.997 6.519,2.466 9.577,4.409c3.058,1.943 5.578,4.591 7.559,7.944c1.982,3.354 2.972,7.697 2.972,13.03c0,5.675 -1.186,10.701 -3.559,15.077c-2.373,4.376 -5.565,8.068 -9.577,11.076c-4.012,3.008 -8.55,5.351 -13.614,7.028c-5.064,1.677 -10.287,2.679 -15.669,3.006Z" style="fill:none;fill-rule:nonzero;stroke:#fff;stroke-width:1.67px;stroke-linecap:butt;stroke-miterlimit:2;"/></g><g><path d="M8.387,228.023l32.291,-107.641l29.796,-1.809l32.291,103.72l-20.549,1.248l-6.784,-21.605l-39.81,2.417l-6.686,22.422l-20.549,1.248Zm32.906,-42.656l28.374,-1.722l-14.091,-46.08l-14.283,47.802Z" style="fill:none;stroke:#fff;stroke-width:2.08px;"/><path d="M212.571,176.344c-0.498,0.257 0.304,1.58 1.222,3.395c4.303,8.514 17.563,34.748 17.563,34.748l-22.433,1.362l-17.509,-34.751l-22.305,1.354l0,35.814l-19.962,1.211l0,-105.68l44.621,-2.709c1.027,-0.062 2.409,-0.109 4.146,-0.141c1.737,-0.033 3.291,0.032 4.66,0.194c6.312,0.595 11.486,2.36 15.522,5.295c4.037,2.936 7.009,6.755 8.917,11.458c1.908,4.704 2.862,10.015 2.862,15.935c0,8.856 -2.201,16.561 -6.605,23.115c-2.657,3.956 -6.224,7.089 -10.699,9.4m-43.462,-12.533l23.778,-1.444c1.028,-0.062 2.153,-0.179 3.376,-0.351c1.223,-0.173 2.348,-0.437 3.376,-0.792c2.691,-0.898 4.77,-2.259 6.238,-4.085c1.468,-1.826 2.483,-3.821 3.046,-5.983c0.562,-2.162 0.844,-4.198 0.844,-6.106c-0,-1.908 -0.282,-3.909 -0.844,-6.003c-0.563,-2.094 -1.578,-3.965 -3.046,-5.613c-1.468,-1.648 -3.547,-2.757 -6.238,-3.328c-1.028,-0.231 -2.153,-0.358 -3.376,-0.382c-1.223,-0.023 -2.348,-0.004 -3.376,0.058l-23.778,1.444l0,32.585Z" style="fill:none;fill-rule:nonzero;stroke:#fff;stroke-width:1.67px;stroke-linecap:butt;stroke-miterlimit:2;"/><path d="M282.862,211.36l0,-105.681l68.986,-4.188l0,18.641l-49.024,2.976l0,22.604l40.217,-2.441l0,18.641l-40.217,2.441l0,27.154l49.024,-2.976l0,18.641l-68.986,4.188Z" style="fill:none;fill-rule:nonzero;stroke:#fff;stroke-width:1.67px;stroke-linecap:butt;stroke-miterlimit:2;"/><path d="M450.043,203.412c-10.568,0.642 -19.681,-1.104 -27.338,-5.239c-7.657,-4.134 -13.552,-10.21 -17.686,-18.227c-4.135,-8.018 -6.202,-17.506 -6.202,-28.466c0,-10.959 2.067,-20.699 6.202,-29.218c4.134,-8.52 10.029,-15.311 17.686,-20.375c7.657,-5.064 16.77,-7.917 27.338,-8.558c10.568,-0.642 19.68,1.104 27.337,5.239c7.657,4.134 13.553,10.21 17.687,18.227c4.134,8.018 6.201,17.506 6.201,28.466c0,10.959 -2.067,20.699 -6.201,29.218c-4.134,8.52 -10.03,15.311 -17.687,20.375c-7.657,5.064 -16.769,7.917 -27.337,8.558Zm-0,-18.787c6.703,-0.309 12.28,-2.091 16.733,-5.346c4.452,-3.255 7.791,-7.69 10.017,-13.305c2.226,-5.614 3.339,-12.091 3.339,-19.43c0,-7.339 -1.113,-13.632 -3.339,-18.879c-2.226,-5.246 -5.565,-9.227 -10.017,-11.941c-4.453,-2.714 -10.03,-3.917 -16.733,-3.608c-6.703,0.309 -12.281,2.091 -16.733,5.346c-4.452,3.255 -7.791,7.69 -10.018,13.304c-2.226,5.615 -3.339,12.092 -3.339,19.431c0,7.339 1.113,13.632 3.339,18.879c2.227,5.246 5.566,9.227 10.018,11.941c4.452,2.714 10.03,3.917 16.733,3.608Z" style="fill:none;fill-rule:nonzero;stroke:#fff;stroke-width:1.67px;stroke-linecap:butt;stroke-miterlimit:2;"/><path d="M552.347,195l0,-105.68l44.621,-2.709c1.027,-0.063 2.41,-0.11 4.146,-0.142c1.737,-0.032 3.291,0.033 4.661,0.194c6.311,0.596 11.485,2.361 15.521,5.296c4.037,2.935 7.009,6.754 8.917,11.458c1.908,4.703 2.862,10.015 2.862,15.935c0,5.92 -0.966,11.348 -2.898,16.285c-1.933,4.936 -4.917,9.117 -8.954,12.543c-4.036,3.425 -9.186,5.817 -15.448,7.175c-1.37,0.279 -2.936,0.521 -4.697,0.726c-1.762,0.205 -3.132,0.337 -4.11,0.396l-24.659,1.497l0,35.814l-19.962,1.212Zm19.962,-55.667l23.778,-1.443c1.028,-0.063 2.153,-0.18 3.376,-0.352c1.223,-0.172 2.349,-0.436 3.376,-0.792c2.691,-0.897 4.77,-2.259 6.238,-4.085c1.468,-1.826 2.483,-3.82 3.046,-5.982c0.562,-2.163 0.844,-4.198 0.844,-6.106c-0,-1.908 -0.282,-3.91 -0.844,-6.004c-0.563,-2.094 -1.578,-3.965 -3.046,-5.613c-1.468,-1.647 -3.547,-2.756 -6.238,-3.327c-1.027,-0.231 -2.153,-0.359 -3.376,-0.382c-1.223,-0.024 -2.348,-0.004 -3.376,0.058l-23.778,1.444l0,32.584Z" style="fill:none;fill-rule:nonzero;stroke:#fff;stroke-width:1.67px;stroke-linecap:butt;stroke-miterlimit:2;"/><path d="M666.96,188.042l32.292,-107.641l29.796,-1.809l32.291,103.721l-20.549,1.247l-6.785,-21.605l-39.809,2.417l-6.687,22.423l-20.549,1.247Zm32.907,-42.655l28.374,-1.723l-14.091,-46.08l-14.283,47.803Z" style="fill:none;stroke:#fff;stroke-width:2.08px;"/><path d="M848.84,179.202c-6.654,0.404 -12.99,-0.398 -19.008,-2.405c-6.018,-2.008 -11.339,-5.195 -15.962,-9.563c-4.624,-4.367 -8.269,-9.894 -10.935,-16.582c-2.667,-6.688 -4,-14.509 -4,-23.462c0,-11.693 2.238,-21.774 6.715,-30.24c4.477,-8.467 10.495,-15.083 18.054,-19.847c7.559,-4.765 15.938,-7.426 25.136,-7.985c13.601,-0.825 24.291,1.681 32.071,7.521c7.779,5.839 12.99,14.452 15.632,25.838l-20.403,4.174c-1.908,-6.049 -5.027,-10.789 -9.357,-14.22c-4.33,-3.431 -9.871,-4.966 -16.622,-4.605c-6.703,0.309 -12.281,2.091 -16.733,5.346c-4.452,3.254 -7.792,7.689 -10.018,13.304c-2.226,5.615 -3.339,12.092 -3.339,19.431c0,7.339 1.113,13.632 3.339,18.878c2.226,5.247 5.566,9.227 10.018,11.942c4.452,2.714 10.03,3.916 16.733,3.607c4.55,-0.178 8.672,-1.211 12.366,-3.099c3.694,-1.888 6.813,-4.694 9.357,-8.421c2.544,-3.726 4.354,-8.41 5.431,-14.053l-16.733,1.016l-0,-15.412l38.016,-2.308c0.097,0.63 0.171,1.751 0.22,3.363c0.049,1.611 0.073,2.539 0.073,2.784c0,10.128 -2.055,19.231 -6.165,27.308c-4.109,8.078 -9.907,14.558 -17.393,19.44c-7.486,4.882 -16.317,7.632 -26.493,8.25Z" style="fill:none;fill-rule:nonzero;stroke:#fff;stroke-width:1.67px;stroke-linecap:butt;stroke-miterlimit:2;"/><path d="M992.682,170.47c-8.513,0.517 -15.998,-0.754 -22.457,-3.811c-6.458,-3.057 -11.497,-7.607 -15.118,-13.65c-3.62,-6.043 -5.431,-13.296 -5.431,-21.76l0,-65.904l20.256,-1.376l-0,65.903c-0,3.474 0.587,6.594 1.761,9.361c1.174,2.766 2.801,5.114 4.881,7.042c2.079,1.929 4.501,3.36 7.265,4.293c2.764,0.933 5.712,1.304 8.843,1.114c3.23,-0.196 6.226,-0.94 8.991,-2.234c2.764,-1.293 5.174,-3.029 7.228,-5.209c2.055,-2.179 3.658,-4.723 4.807,-7.63c1.15,-2.908 1.725,-6.074 1.725,-9.499l0,-65.903l20.256,-1.23l-0,66.05c-0,8.464 -1.811,15.938 -5.431,22.42c-3.621,6.482 -8.66,11.644 -15.118,15.486c-6.459,3.841 -13.944,6.02 -22.458,6.537Z" style="fill:none;fill-rule:nonzero;stroke:#fff;stroke-width:1.67px;stroke-linecap:butt;stroke-miterlimit:2;"/><path d="M1130.51,162.103c-7.828,0.475 -14.885,-0.479 -21.172,-2.861c-6.287,-2.383 -11.449,-6.033 -15.486,-10.949c-4.036,-4.917 -6.592,-10.914 -7.669,-17.992l20.843,-4.348c1.468,5.978 4.501,10.466 9.1,13.465c4.599,2.999 9.834,4.32 15.705,3.964c3.278,-0.199 6.459,-0.906 9.541,-2.121c3.082,-1.214 5.614,-2.885 7.596,-5.011c1.981,-2.126 2.972,-4.657 2.972,-7.593c0,-1.076 -0.159,-2.106 -0.477,-3.09c-0.318,-0.983 -0.844,-1.893 -1.578,-2.729c-0.734,-0.837 -1.773,-1.605 -3.119,-2.306c-1.345,-0.701 -3.046,-1.308 -5.1,-1.819l-27.448,-6.407c-2.055,-0.462 -4.44,-1.149 -7.155,-2.06c-2.716,-0.912 -5.346,-2.293 -7.89,-4.145c-2.544,-1.851 -4.66,-4.377 -6.348,-7.577c-1.688,-3.2 -2.532,-7.32 -2.532,-12.359c0,-7.095 1.786,-13.099 5.358,-18.012c3.571,-4.914 8.341,-8.702 14.31,-11.364c5.969,-2.662 12.574,-4.188 19.815,-4.579c7.29,-0.344 13.798,0.508 19.522,2.558c5.724,2.05 10.519,5.245 14.384,9.585c3.865,4.34 6.654,9.76 8.367,16.261l-21.577,4.98c-0.783,-3.378 -2.226,-6.177 -4.33,-8.397c-2.104,-2.221 -4.611,-3.855 -7.522,-4.901c-2.911,-1.047 -5.957,-1.522 -9.137,-1.427c-3.131,0.092 -6.079,0.699 -8.843,1.821c-2.765,1.122 -5.015,2.641 -6.752,4.556c-1.737,1.916 -2.606,4.122 -2.606,6.617c0,2.299 0.71,4.128 2.129,5.485c1.419,1.357 3.204,2.411 5.357,3.161c2.153,0.75 4.355,1.35 6.605,1.8l18.347,3.877c2.74,0.568 5.774,1.35 9.101,2.346c3.327,0.997 6.519,2.467 9.577,4.41c3.058,1.942 5.578,4.59 7.559,7.944c1.982,3.353 2.972,7.696 2.972,13.029c0,5.676 -1.186,10.702 -3.559,15.078c-2.373,4.376 -5.565,8.068 -9.577,11.076c-4.012,3.008 -8.55,5.35 -13.614,7.028c-5.064,1.677 -10.287,2.679 -15.669,3.006Z" style="fill:none;fill-rule:nonzero;stroke:#fff;stroke-width:1.67px;stroke-linecap:butt;stroke-miterlimit:2;"/></g><g transform="matrix(0.998162,-0.0605964,0,1.00184,-0.119661,-0.968219)"><text x="11.401px" y="223.287px" style="font-family:'Manrope-ExtraLight_ExtraBold', 'Manrope';font-weight:200;font-size:146.509px;fill:#fff;">A<tspan x="145.068px 279.029px 401.079px 549.01px 671.208px 801.934px 947.071px 1088.24px " y="223.287px 223.287px 223.287px 223.287px 223.287px 223.287px 223.287px 223.287px ">REOPAGUS</tspan></text></g></g><g transform="matrix(0.998162,-0.0605964,0,1.00184,-0.12706,-1.37793)"><text x="402.705px" y="313.316px" style="font-family:'Manrope-ExtraLight_Bold', 'Manrope';font-weight:200;font-size:63.487px;fill:#fffcfc;">P<tspan x="459.57px 518.371px 583.304px 631.003px 684.919px 749.464px " y="313.316px 313.316px 313.316px 313.316px 313.316px 313.316px ">ROJECT</tspan></text></g></g></svg>
