<?xml version="1.0" encoding="UTF-8" standalone="no"?>
<!DOCTYPE svg PUBLIC "-//W3C//DTD SVG 1.1//EN" "http://www.w3.org/Graphics/SVG/1.1/DTD/svg11.dtd">
<svg width="1050px" height="387px" version="1.1" xmlns="http://www.w3.org/2000/svg" xmlns:xlink="http://www.w3.org/1999/xlink" xml:space="preserve" xmlns:serif="http://www.serif.com/" style="fill-rule:evenodd;clip-rule:evenodd;stroke-linejoin:round;stroke-miterlimit:2;">
    <g>
        <g transform="matrix(6.46549,-0.577029,1.78748e-16,6.41479,-2102.46,-1171.96)">
            <g transform="matrix(14.3254,0,0,14.3254,388.223,231.221)">
                <path d="M0.789,-0.7L0.011,-0.7L0.011,-0.525L0.293,-0.525L0.293,0L0.507,0L0.507,-0.525L0.789,-0.525L0.789,-0.7Z" style="fill:rgb(8,0,61);fill-rule:nonzero;"/>
            </g>
            <g transform="matrix(14.3254,0,0,14.3254,401.116,231.221)">
                <path d="M0.663,-0.7L0.663,-0.437L0.274,-0.437L0.274,-0.7L0.06,-0.7L0.06,0L0.274,0L0.274,-0.262L0.663,-0.262L0.663,0L0.877,0L0.877,-0.7L0.663,-0.7Z" style="fill:rgb(8,0,61);fill-rule:nonzero;"/>
            </g>
            <g transform="matrix(14.3254,0,0,14.3254,415.972,231.221)">
                <path d="M0.274,-0.175L0.274,-0.262L0.741,-0.262L0.741,-0.437L0.274,-0.437L0.274,-0.525L0.779,-0.525L0.779,-0.7L0.06,-0.7L0.06,0L0.779,0L0.779,-0.175L0.274,-0.175Z" style="fill:rgb(8,0,61);fill-rule:nonzero;"/>
            </g>
            <g transform="matrix(18.1428,0,0,18.1428,327.786,253.898)">
                <path d="M0.686,-0L0.92,-0L0.576,-0.7L0.342,-0.7L-0.001,-0L0.233,-0L0.271,-0.078L0.648,-0.078L0.686,-0ZM0.561,-0.253L0.356,-0.253L0.459,-0.462L0.561,-0.253Z" style="fill:rgb(8,0,61);fill-rule:nonzero;"/>
            </g>
            <g transform="matrix(18.1428,0,0,18.1428,346.274,253.898)">
                <path d="M0.624,0L0.865,0L0.747,-0.224C0.814,-0.271 0.857,-0.349 0.857,-0.437C0.857,-0.582 0.739,-0.7 0.595,-0.7L0.06,-0.7L0.06,0L0.274,0L0.274,-0.175L0.532,-0.175L0.624,0ZM0.274,-0.525L0.556,-0.525C0.604,-0.525 0.643,-0.486 0.643,-0.437C0.643,-0.389 0.604,-0.35 0.556,-0.35L0.274,-0.35L0.274,-0.525Z" style="fill:rgb(8,0,61);fill-rule:nonzero;"/>
            </g>
            <g transform="matrix(18.1428,0,0,18.1428,364.326,253.898)">
                <path d="M0.274,-0.175L0.274,-0.262L0.741,-0.262L0.741,-0.437L0.274,-0.437L0.274,-0.525L0.779,-0.525L0.779,-0.7L0.06,-0.7L0.06,0L0.779,0L0.779,-0.175L0.274,-0.175Z" style="fill:rgb(8,0,61);fill-rule:nonzero;"/>
            </g>
            <g transform="matrix(18.1428,0,0,18.1428,381.126,253.898)">
                <path d="M0.928,-0.35C0.928,-0.622 0.773,-0.719 0.482,-0.719C0.19,-0.719 0.034,-0.622 0.034,-0.35C0.034,-0.058 0.209,0.019 0.482,0.019C0.773,0.019 0.928,-0.058 0.928,-0.35ZM0.695,-0.35C0.695,-0.194 0.617,-0.156 0.482,-0.156C0.345,-0.156 0.267,-0.194 0.267,-0.35C0.267,-0.506 0.345,-0.544 0.482,-0.544C0.62,-0.544 0.695,-0.506 0.695,-0.35Z" style="fill:rgb(8,0,61);fill-rule:nonzero;"/>
            </g>
            <g transform="matrix(18.1428,0,0,18.1428,400.43,253.898)">
                <path d="M0.536,-0.7C0.536,-0.7 0.06,-0.7 0.06,-0.7L0.06,0L0.274,0L0.274,-0.175L0.536,-0.175C0.681,-0.175 0.799,-0.293 0.799,-0.437C0.799,-0.582 0.681,-0.7 0.536,-0.7ZM0.497,-0.35L0.274,-0.35L0.274,-0.525L0.497,-0.525C0.546,-0.525 0.585,-0.486 0.585,-0.437C0.585,-0.389 0.546,-0.35 0.497,-0.35Z" style="fill:rgb(8,0,61);fill-rule:nonzero;"/>
            </g>
            <g transform="matrix(18.1428,0,0,18.1428,415.725,253.898)">
                <path d="M0.686,-0L0.92,-0L0.576,-0.7L0.342,-0.7L-0.001,-0L0.233,-0L0.271,-0.078L0.648,-0.078L0.686,-0ZM0.561,-0.253L0.356,-0.253L0.459,-0.462L0.561,-0.253Z" style="fill:rgb(8,0,61);fill-rule:nonzero;"/>
            </g>
            <g transform="matrix(18.1428,0,0,18.1428,433.523,253.898)">
                <path d="M0.501,-0.369L0.501,-0.214L0.659,-0.214C0.623,-0.169 0.563,-0.156 0.482,-0.156C0.345,-0.156 0.267,-0.194 0.267,-0.35C0.267,-0.506 0.345,-0.544 0.482,-0.544C0.585,-0.544 0.653,-0.523 0.681,-0.447L0.921,-0.447C0.886,-0.646 0.735,-0.719 0.482,-0.719C0.19,-0.719 0.034,-0.622 0.034,-0.35C0.034,-0.058 0.209,0.019 0.482,0.019C0.603,0.019 0.7,0.006 0.773,-0.031L0.773,0L0.928,0L0.928,-0.369L0.501,-0.369Z" style="fill:rgb(8,0,61);fill-rule:nonzero;"/>
            </g>
            <g transform="matrix(18.1428,0,0,18.1428,453.026,253.898)">
                <path d="M0.047,-0.35C0.047,-0.058 0.222,0.019 0.456,0.019C0.689,0.019 0.864,-0.058 0.864,-0.35L0.864,-0.7L0.65,-0.7L0.65,-0.35C0.65,-0.194 0.572,-0.156 0.456,-0.156C0.339,-0.156 0.261,-0.194 0.261,-0.35L0.261,-0.7L0.047,-0.7L0.047,-0.35Z" style="fill:rgb(8,0,61);fill-rule:nonzero;"/>
            </g>
            <g transform="matrix(18.1428,0,0,18.1428,471.369,253.898)">
                <path d="M0.467,-0.437C0.467,-0.437 0.467,-0.438 0.467,-0.438L0.467,-0.438C0.467,-0.438 0.466,-0.438 0.466,-0.438C0.343,-0.442 0.261,-0.437 0.261,-0.496C0.261,-0.545 0.34,-0.545 0.463,-0.545C0.59,-0.545 0.667,-0.545 0.667,-0.467L0.881,-0.467C0.881,-0.681 0.736,-0.72 0.463,-0.72C0.202,-0.72 0.046,-0.681 0.046,-0.496C0.046,-0.311 0.199,-0.291 0.46,-0.282L0.461,-0.282C0.584,-0.278 0.676,-0.282 0.676,-0.214C0.676,-0.156 0.587,-0.156 0.464,-0.156C0.338,-0.156 0.25,-0.156 0.25,-0.233L0.036,-0.233C0.036,-0.02 0.192,0.019 0.464,0.019C0.725,0.019 0.891,-0.02 0.891,-0.214L0.892,-0.214C0.892,-0.408 0.728,-0.429 0.467,-0.437Z" style="fill:rgb(8,0,61);fill-rule:nonzero;"/>
            </g>
            <g transform="matrix(14.3254,0,0,14.3254,359.995,275.386)">
                <path d="M0.536,-0.7C0.536,-0.7 0.06,-0.7 0.06,-0.7L0.06,0L0.274,0L0.274,-0.175L0.536,-0.175C0.681,-0.175 0.799,-0.293 0.799,-0.437C0.799,-0.582 0.681,-0.7 0.536,-0.7ZM0.497,-0.35L0.274,-0.35L0.274,-0.525L0.497,-0.525C0.546,-0.525 0.585,-0.486 0.585,-0.437C0.585,-0.389 0.546,-0.35 0.497,-0.35Z" style="fill:rgb(8,0,61);fill-rule:nonzero;"/>
            </g>
            <g transform="matrix(14.3254,0,0,14.3254,373.189,275.386)">
                <path d="M0.624,0L0.865,0L0.747,-0.224C0.814,-0.271 0.857,-0.349 0.857,-0.437C0.857,-0.582 0.739,-0.7 0.595,-0.7L0.06,-0.7L0.06,0L0.274,0L0.274,-0.175L0.532,-0.175L0.624,0ZM0.274,-0.525L0.556,-0.525C0.604,-0.525 0.643,-0.486 0.643,-0.437C0.643,-0.389 0.604,-0.35 0.556,-0.35L0.274,-0.35L0.274,-0.525Z" style="fill:rgb(8,0,61);fill-rule:nonzero;"/>
            </g>
            <g transform="matrix(14.3254,0,0,14.3254,387.443,275.386)">
                <path d="M0.928,-0.35C0.928,-0.622 0.773,-0.719 0.482,-0.719C0.19,-0.719 0.034,-0.622 0.034,-0.35C0.034,-0.058 0.209,0.019 0.482,0.019C0.773,0.019 0.928,-0.058 0.928,-0.35ZM0.695,-0.35C0.695,-0.194 0.617,-0.156 0.482,-0.156C0.345,-0.156 0.267,-0.194 0.267,-0.35C0.267,-0.506 0.345,-0.544 0.482,-0.544C0.62,-0.544 0.695,-0.506 0.695,-0.35Z" style="fill:rgb(8,0,61);fill-rule:nonzero;"/>
            </g>
            <g transform="matrix(14.3254,0,0,14.3254,402.685,275.386)">
                <path d="M0.795,-0.7L0.581,-0.7L0.581,-0.35C0.581,-0.194 0.503,-0.156 0.406,-0.156C0.309,-0.156 0.231,-0.194 0.231,-0.35L0.017,-0.35C0.017,-0.058 0.192,0.019 0.406,0.019C0.62,0.019 0.795,-0.058 0.795,-0.35L0.795,-0.7Z" style="fill:rgb(8,0,61);fill-rule:nonzero;"/>
            </g>
            <g transform="matrix(14.3254,0,0,14.3254,416.179,275.386)">
                <path d="M0.274,-0.175L0.274,-0.262L0.741,-0.262L0.741,-0.437L0.274,-0.437L0.274,-0.525L0.779,-0.525L0.779,-0.7L0.06,-0.7L0.06,0L0.779,0L0.779,-0.175L0.274,-0.175Z" style="fill:rgb(8,0,61);fill-rule:nonzero;"/>
            </g>
            <g transform="matrix(14.3254,0,0,14.3254,429.445,275.386)">
                <path d="M0.686,-0.272C0.663,-0.181 0.591,-0.156 0.482,-0.156C0.345,-0.156 0.267,-0.194 0.267,-0.35C0.267,-0.506 0.345,-0.544 0.482,-0.544C0.593,-0.544 0.664,-0.519 0.687,-0.428L0.924,-0.428C0.895,-0.641 0.743,-0.719 0.482,-0.719C0.19,-0.719 0.034,-0.622 0.034,-0.35C0.034,-0.058 0.209,0.019 0.482,0.019C0.745,0.019 0.897,-0.044 0.924,-0.272L0.686,-0.272Z" style="fill:rgb(8,0,61);fill-rule:nonzero;"/>
            </g>
            <g transform="matrix(14.3254,0,0,14.3254,444.572,275.386)">
                <path d="M0.789,-0.7L0.011,-0.7L0.011,-0.525L0.293,-0.525L0.293,0L0.507,0L0.507,-0.525L0.789,-0.525L0.789,-0.7Z" style="fill:rgb(8,0,61);fill-rule:nonzero;"/>
            </g>
        </g>
        <path d="M78.427,188.47L117.382,263.745L93.023,265.919L88.57,257.265L42.701,261.358L38.204,270.811L13.786,272.991L52.696,190.766L78.427,188.47ZM51.244,242.945L79.66,240.408L65.524,212.93L51.244,242.945ZM51.842,189.485L11.591,274.544L39.055,272.093L43.552,262.64L87.715,258.699L92.168,267.353L119.578,264.907L79.279,187.036L51.842,189.485ZM65.518,216.014L77.47,239.246L53.444,241.39L65.518,216.014Z" style="fill:rgb(7,0,61);fill-rule:nonzero;"/>
        <path d="M201.001,177.53C217.225,176.082 230.424,188 230.424,204.097C230.424,208.822 229.255,213.622 227.043,217.978C224.9,222.196 221.788,226.003 218.041,228.988L217.067,229.764L230.41,253.658L205.248,255.903L194.414,236.503L161.998,239.396L161.998,259.763L139.646,261.758L139.646,183.006L201.001,177.53ZM161.998,221.745L196.439,218.671C202.853,218.099 208.072,212.456 208.072,206.092C208.072,199.728 202.853,195.016 196.439,195.589L161.998,198.663L161.998,221.745ZM138.277,181.77L138.277,263.238L163.367,260.999L163.367,240.632L193.588,237.935L204.423,257.335L232.68,254.813L218.835,230.022C226.673,223.779 231.793,214.231 231.793,203.975C231.793,187.129 217.98,174.657 201.001,176.173L138.277,181.77ZM163.367,199.898L196.439,196.947C202.099,196.441 206.703,200.599 206.703,206.214C206.703,211.829 202.099,216.808 196.439,217.313L163.367,220.265L163.367,199.898Z" style="fill:rgb(7,0,61);fill-rule:nonzero;"/>
        <path d="M338.017,165.302L338.017,182.953L278.714,188.246L278.714,201.145L333.455,196.259L333.455,213.911L278.714,218.796L278.714,231.695L338.017,226.403L338.017,244.054L256.361,251.342L256.361,172.59L338.017,165.302ZM254.993,171.354L254.993,252.821L339.385,245.29L339.385,224.923L280.082,230.215L280.082,220.032L334.823,215.146L334.823,194.78L280.082,199.665L280.082,189.482L339.385,184.189L339.385,163.822L254.993,171.354Z" style="fill:rgb(7,0,61);fill-rule:nonzero;"/>
        <path d="M413.079,156.34C430.597,154.776 443.083,156.715 451.253,162.266C459.909,168.147 464.116,178.339 464.116,193.424C464.116,201.701 463.041,208.515 460.828,214.256C458.711,219.747 455.586,224.147 451.276,227.707C447.143,231.121 441.948,233.739 435.393,235.711C429.306,237.543 422.007,238.821 413.079,239.618C395.678,241.171 383.777,239.528 375.625,234.446C366.412,228.704 361.933,218.268 361.933,202.544C361.933,187.455 366.145,176.512 374.809,169.089C382.992,162.078 395.51,157.908 413.079,156.34ZM413.079,221.967C426.792,220.743 439.483,216.704 439.483,195.622C439.483,186.353 437.274,180.462 432.53,177.083C428.366,174.116 422.367,173.162 413.079,173.991C403.848,174.815 397.854,176.837 393.645,180.548C388.882,184.748 386.567,191.224 386.567,200.345C386.567,209.466 388.882,215.529 393.645,218.878C397.854,221.838 403.848,222.79 413.079,221.967ZM360.565,202.666C360.565,236.61 381.092,243.83 413.079,240.976C447.238,237.927 465.485,227.247 465.485,193.302C465.485,161.62 447.238,151.933 413.079,154.982C378.812,158.04 360.565,170.984 360.565,202.666ZM387.935,200.223C387.935,182.119 397.059,176.779 413.079,175.349C429.275,173.903 438.115,177.641 438.115,195.745C438.115,213.848 428.991,219.189 413.079,220.609C397.059,222.039 387.935,218.327 387.935,200.223Z" style="fill:rgb(7,0,61);fill-rule:nonzero;"/>
        <path d="M544.306,146.891C560.53,145.443 573.729,157.361 573.729,173.458C573.729,189.555 560.53,203.828 544.306,205.276L512.145,208.147L512.145,228.513L489.793,230.508L489.793,151.756L544.306,146.891ZM512.145,190.495L539.744,188.032C546.158,187.46 551.376,181.817 551.376,175.453C551.376,169.089 546.158,164.377 539.744,164.95L512.145,167.413L512.145,190.495ZM488.424,150.521L488.424,231.988L513.514,229.749L513.514,209.382L544.306,206.634C561.284,205.119 575.097,190.181 575.097,173.336C575.097,156.49 561.284,144.018 544.306,145.533L488.424,150.521ZM513.514,168.648L539.744,166.307C545.403,165.802 550.008,169.96 550.008,175.575C550.008,181.19 545.403,186.169 539.744,186.674L513.514,189.015L513.514,168.648Z" style="fill:rgb(7,0,61);fill-rule:nonzero;"/>
        <path d="M646.99,137.727L685.945,213.002L661.586,215.176L657.134,206.522L611.265,210.615L606.767,220.068L582.35,222.248L621.259,140.024L646.99,137.727ZM619.808,192.202L648.224,189.665L634.088,162.187L619.808,192.202ZM620.406,138.742L580.154,223.801L607.618,221.35L612.116,211.897L656.279,207.956L660.731,216.61L688.141,214.164L647.843,136.293L620.406,138.742ZM634.082,165.271L646.033,188.503L622.008,190.647L634.082,165.271Z" style="fill:rgb(7,0,61);fill-rule:nonzero;"/>
        <path d="M751.848,126.106C782.001,123.415 797.454,130.985 801.679,150.625L776.124,152.905C771.868,143.34 761.498,142.896 751.848,143.757C742.616,144.581 736.623,146.603 732.414,150.314C727.651,154.514 725.335,160.99 725.335,170.111C725.335,179.232 727.651,185.294 732.414,188.644C736.623,191.604 742.616,192.556 751.848,191.732C762.881,190.748 769.614,187.895 773.677,182.485L775.452,180.121L755.443,181.907L755.443,166.518L802.885,162.284L802.885,202.566L787.375,203.95L787.375,199.544L785.392,200.712C777.632,205.278 766.973,208.033 751.848,209.383C734.447,210.936 722.546,209.293 714.394,204.212C705.181,198.469 700.702,188.033 700.702,172.309C700.702,157.221 704.914,146.278 713.578,138.855C721.761,131.844 734.279,127.674 751.848,126.106ZM699.333,172.431C699.333,206.376 719.861,213.596 751.848,210.741C766.036,209.475 777.476,206.89 786.007,201.87L786.007,205.43L804.254,203.801L804.254,160.804L754.074,165.283L754.074,183.387L772.607,181.733C768.446,187.274 761.361,189.525 751.847,190.374C735.827,191.804 726.704,188.093 726.704,169.989C726.704,151.885 735.827,146.544 751.847,145.115C763.93,144.036 771.916,145.844 775.195,154.346L803.335,151.834C799.251,129.091 781.577,122.095 751.848,124.748C717.58,127.806 699.333,140.75 699.333,172.431Z" style="fill:rgb(7,0,61);fill-rule:nonzero;"/>
        <path d="M921.386,113.238L921.386,152.614C921.386,160.628 920.199,167.638 917.856,173.447C915.693,178.813 912.458,183.352 908.242,186.937C900.738,193.319 889.832,197.069 874.901,198.401C859.928,199.738 848.996,197.936 841.481,192.895C837.261,190.063 834.023,186.102 831.858,181.122C829.515,175.732 828.327,168.935 828.327,160.919L828.327,121.543L850.68,119.548L850.68,158.924C850.68,167.939 852.89,174.001 857.436,177.456C861.334,180.419 866.884,181.466 874.901,180.75C882.876,180.038 888.402,178.003 892.29,174.345C896.828,170.075 899.034,163.619 899.034,154.609L899.034,115.233L921.386,113.238ZM897.665,113.997L897.665,154.731C897.665,172.835 888.542,178.175 874.901,179.392C861.171,180.618 852.048,176.906 852.048,158.802L852.048,118.068L826.958,120.307L826.958,161.041C826.958,194.986 847.486,202.206 874.901,199.759C902.227,197.32 922.755,186.436 922.755,152.492L922.755,111.758L897.665,113.997Z" style="fill:rgb(7,0,61);fill-rule:nonzero;"/>
        <path d="M994.386,104.452C1012.39,102.845 1023.12,103.45 1030.25,106.474C1034.25,108.168 1037.12,110.652 1039.04,114.067C1040.91,117.39 1041.9,121.6 1042.04,126.903L1019.63,128.902C1019.21,124.884 1016.79,122.518 1012.28,121.687C1007.97,120.891 1001.98,121.426 994.386,122.104C986.968,122.766 981.11,123.289 976.872,124.394C974.998,124.882 969.298,126.369 969.298,131.358C969.298,134.875 971.367,136.923 975.625,137.621C979.163,138.2 984,137.898 990.123,137.516L994.798,137.236C1008.7,136.468 1021.9,136.014 1030.68,138.843C1034.92,140.208 1037.97,142.269 1040,145.144C1042,147.961 1043.06,151.593 1043.23,156.216L1043.2,156.218L1043.2,157.576C1043.2,167.82 1039.13,174.801 1030.42,179.547C1022.87,183.656 1011.77,186.179 994.44,187.726C976.28,189.346 965.379,188.755 957.987,185.747C953.826,184.055 950.823,181.577 948.805,178.173C946.834,174.848 945.797,170.651 945.648,165.377L968.056,163.377C968.519,167.381 971.14,169.731 976.028,170.543C980.626,171.307 987.028,170.736 994.44,170.074C1009.67,168.715 1020.67,167.733 1020.67,159.586C1020.67,155.603 1018.4,153.259 1013.72,152.419C1009.83,151.718 1004.43,152.049 998.184,152.432L994.081,152.674C977.577,153.585 966.506,153.629 958.761,151.157C950.468,148.509 946.769,143.023 946.769,133.369C946.769,123.612 950.649,116.962 958.978,112.44C966.338,108.444 977.258,105.981 994.386,104.452ZM945.401,133.491C945.401,154.989 963.427,155.725 994.034,154.035L994.141,154.029C1008.59,153.232 1019.3,151.741 1019.3,159.709C1019.3,166.491 1008.9,167.426 994.44,168.716C979.705,170.031 969.35,170.955 969.35,161.903L944.26,164.143C944.26,189.036 962.507,191.933 994.44,189.083C1025.06,186.35 1044.57,180.084 1044.57,157.454L1044.62,157.449C1044.62,134.819 1025.45,134.185 994.845,135.875C994.827,135.876 994.809,135.877 994.791,135.878L994.792,135.878C994.773,135.879 994.756,135.88 994.738,135.881C980.29,136.678 970.666,138.13 970.666,131.236C970.666,125.578 979.929,124.751 994.386,123.461C1009.21,122.138 1018.34,121.324 1018.34,130.376L1043.42,128.137C1043.42,103.244 1026.32,100.245 994.386,103.095C963.761,105.828 945.401,111.992 945.401,133.491Z" style="fill:rgb(7,0,61);fill-rule:nonzero;"/>
        <path d="M72.217,196.774L111.172,272.049L86.813,274.223L82.361,265.568L36.492,269.662L31.994,279.115L7.576,281.294L46.486,199.07L72.217,196.774ZM45.034,251.248L73.451,248.712L59.315,221.234L45.034,251.248ZM45.633,197.789L5.381,282.848L32.845,280.397L37.343,270.944L81.506,267.002L85.958,275.657L113.368,273.21L73.07,195.34L45.633,197.789ZM59.308,224.317L71.26,247.55L47.235,249.694L59.308,224.317Z" style="fill:rgb(7,0,61);fill-rule:nonzero;"/>
        <path d="M194.791,185.834C211.016,184.386 224.215,196.304 224.215,212.401C224.215,217.126 223.045,221.925 220.833,226.281C218.691,230.499 215.578,234.307 211.831,237.291L210.857,238.068L224.201,261.961L199.038,264.207L188.204,244.807L155.789,247.7L155.789,268.067L133.436,270.062L133.436,191.31L194.791,185.834ZM155.789,230.049L190.23,226.975C196.644,226.403 201.862,220.76 201.862,214.396C201.862,208.032 196.644,203.32 190.23,203.892L155.789,206.966L155.789,230.049ZM132.067,190.074L132.067,271.542L157.157,269.303L157.157,248.936L187.379,246.239L198.213,265.639L226.47,263.117L212.626,238.326C220.463,232.083 225.584,222.535 225.584,212.278C225.583,195.433 211.77,182.961 194.791,184.476L132.067,190.074ZM157.157,208.202L190.23,205.25C195.889,204.745 200.494,208.903 200.494,214.518C200.494,220.133 195.889,225.112 190.23,225.617L157.157,228.569L157.157,208.202Z" style="fill:rgb(7,0,61);fill-rule:nonzero;"/>
        <path d="M331.807,173.606L331.807,191.257L272.504,196.55L272.504,209.449L327.245,204.563L327.245,222.215L272.504,227.1L272.504,239.999L331.807,234.706L331.807,252.358L250.152,259.645L250.152,180.893L331.807,173.606ZM248.783,179.658L248.783,261.125L333.175,253.593L333.175,233.227L273.873,238.519L273.873,228.336L328.614,223.45L328.614,203.083L273.873,207.969L273.873,197.785L333.175,192.493L333.175,172.126L248.783,179.658Z" style="fill:rgb(7,0,61);fill-rule:nonzero;"/>
        <path d="M406.869,164.644C424.387,163.08 436.874,165.019 445.044,170.57C453.699,176.451 457.907,186.643 457.907,201.728C457.907,210.005 456.831,216.819 454.618,222.56C452.502,228.051 449.377,232.451 445.066,236.011C440.933,239.424 435.738,242.043 429.183,244.015C423.096,245.847 415.797,247.125 406.869,247.922C389.468,249.475 377.567,247.831 369.415,242.75C360.202,237.007 355.724,226.572 355.724,210.847C355.724,195.759 359.935,184.816 368.599,177.393C376.782,170.382 389.3,166.212 406.869,164.644ZM406.869,230.27C420.583,229.046 433.273,225.008 433.273,203.926C433.273,194.657 431.064,188.766 426.321,185.387C422.156,182.42 416.157,181.466 406.869,182.295C397.638,183.119 391.645,185.141 387.436,188.852C382.673,193.052 380.357,199.528 380.357,208.649C380.357,217.77 382.673,223.832 387.436,227.182C391.644,230.142 397.638,231.094 406.869,230.27ZM354.355,210.969C354.355,244.914 374.883,252.134 406.869,249.279C441.028,246.231 459.275,235.55 459.275,201.606C459.275,169.924 441.028,160.237 406.869,163.286C372.602,166.344 354.355,179.288 354.355,210.969ZM381.726,208.527C381.726,190.423 390.849,185.083 406.869,183.653C423.066,182.207 431.905,185.944 431.905,204.048C431.905,222.152 422.781,227.492 406.869,228.913C390.849,230.342 381.726,226.631 381.726,208.527Z" style="fill:rgb(7,0,61);fill-rule:nonzero;"/>
        <path d="M538.096,155.195C554.32,153.747 567.519,165.665 567.519,181.762C567.519,197.858 554.32,212.132 538.096,213.58L505.936,216.45L505.936,236.817L483.583,238.812L483.583,160.06L538.096,155.195ZM505.936,198.799L533.534,196.336C539.948,195.763 545.167,190.12 545.167,183.756C545.167,177.392 539.948,172.681 533.534,173.253L505.936,175.717L505.936,198.799ZM482.214,158.824L482.214,240.292L507.304,238.053L507.304,217.686L538.096,214.938C555.074,213.423 568.888,198.485 568.888,181.639C568.888,164.794 555.074,152.322 538.096,153.837L482.214,158.824ZM507.304,176.952L533.534,174.611C539.194,174.106 543.798,178.263 543.798,183.879C543.798,189.494 539.193,194.473 533.534,194.978L507.304,197.319L507.304,176.952Z" style="fill:rgb(7,0,61);fill-rule:nonzero;"/>
        <path d="M640.781,146.031L679.736,221.306L655.377,223.48L650.924,214.825L605.055,218.919L600.558,228.372L576.14,230.551L615.05,148.327L640.781,146.031ZM613.598,200.505L642.014,197.969L627.878,170.491L613.598,200.505ZM614.196,147.046L573.945,232.105L601.409,229.654L605.906,220.201L650.069,216.259L654.522,224.914L681.932,222.468L641.633,144.597L614.196,147.046ZM627.872,173.575L639.824,196.807L615.798,198.951L627.872,173.575Z" style="fill:rgb(7,0,61);fill-rule:nonzero;"/>
        <path d="M745.638,134.409C775.791,131.718 791.244,139.289 795.469,158.928L769.914,161.209C765.659,151.644 755.289,151.199 745.638,152.061C736.407,152.885 730.413,154.907 726.204,158.618C721.441,162.818 719.126,169.293 719.126,178.414C719.126,187.536 721.441,193.598 726.204,196.948C730.413,199.907 736.407,200.86 745.638,200.036C756.671,199.051 763.404,196.199 767.467,190.788L769.242,188.425L749.234,190.211L749.234,174.822L796.676,170.588L796.676,210.869L781.166,212.254L781.166,207.848L779.182,209.015C771.422,213.582 760.763,216.337 745.638,217.687C728.237,219.24 716.336,217.597 708.184,212.516C698.971,206.773 694.492,196.337 694.492,180.613C694.492,165.525 698.704,154.582 707.368,147.159C715.551,140.148 728.069,135.977 745.638,134.409ZM693.124,180.735C693.124,214.68 713.652,221.9 745.638,219.045C759.826,217.779 771.266,215.193 779.797,210.174L779.797,213.734L798.044,212.105L798.044,169.108L747.865,173.587L747.865,191.691L766.398,190.036C762.237,195.578 755.151,197.829 745.638,198.678C729.618,200.108 720.494,196.396 720.494,178.292C720.494,160.188 729.618,154.848 745.638,153.418C757.72,152.34 765.707,154.147 768.985,162.65L797.125,160.138C793.041,137.394 775.367,130.398 745.638,133.052C711.371,136.11 693.124,149.053 693.124,180.735Z" style="fill:rgb(7,0,61);fill-rule:nonzero;"/>
        <path d="M915.177,121.541L915.177,160.917C915.177,168.932 913.989,175.941 911.647,181.751C909.483,187.117 906.248,191.656 902.032,195.241C894.528,201.623 883.622,205.373 868.691,206.705C853.718,208.041 842.786,206.24 835.272,201.199C831.051,198.367 827.814,194.406 825.648,189.426C823.305,184.036 822.117,177.238 822.117,169.223L822.117,129.847L844.47,127.852L844.47,167.228C844.47,176.243 846.68,182.305 851.227,185.76C855.125,188.723 860.674,189.769 868.692,189.054C876.667,188.342 882.192,186.307 886.08,182.648C890.618,178.379 892.824,171.923 892.824,162.912L892.824,123.536L915.177,121.541ZM891.456,122.301L891.456,163.034C891.456,181.138 882.332,186.479 868.691,187.696C854.962,188.921 845.838,185.21 845.838,167.106L845.838,126.372L820.749,128.611L820.749,169.345C820.749,203.29 841.276,210.51 868.691,208.063C896.017,205.624 916.545,194.74 916.545,160.795L916.545,120.061L891.456,122.301Z" style="fill:rgb(7,0,61);fill-rule:nonzero;"/>
        <path d="M988.176,112.756C1006.18,111.149 1016.91,111.754 1024.04,114.778C1028.04,116.472 1030.91,118.955 1032.84,122.37C1034.7,125.694 1035.69,129.903 1035.83,135.207L1013.43,137.206C1013,133.188 1010.58,130.822 1006.07,129.991C1001.76,129.195 995.766,129.73 988.176,130.407C980.759,131.069 974.901,131.592 970.662,132.698C968.789,133.186 963.088,134.673 963.088,139.662C963.088,143.179 965.157,145.227 969.415,145.925C972.954,146.504 977.79,146.202 983.914,145.82L988.589,145.54C1002.49,144.772 1015.69,144.318 1024.47,147.147C1028.71,148.512 1031.76,150.572 1033.79,153.447C1035.79,156.265 1036.85,159.897 1037.02,164.519L1036.99,164.522L1036.99,165.88C1036.99,176.123 1032.93,183.105 1024.21,187.85C1016.65,191.96 1005.56,194.483 988.23,196.029C970.071,197.65 959.169,197.059 951.778,194.051C947.617,192.358 944.613,189.881 942.595,186.477C940.624,183.151 939.587,178.955 939.438,173.68L961.846,171.68C962.31,175.684 964.93,178.034 969.819,178.847C974.417,179.611 980.818,179.039 988.23,178.378C1003.46,177.019 1014.46,176.037 1014.46,167.89C1014.46,163.907 1012.19,161.563 1007.51,160.723C1003.62,160.022 998.221,160.353 991.974,160.735L987.871,160.978C971.367,161.889 960.297,161.933 952.551,159.46C944.258,156.813 940.56,151.327 940.56,141.672C940.56,131.916 944.439,125.265 952.768,120.744C960.128,116.748 971.048,114.285 988.176,112.756ZM939.191,141.795C939.191,163.293 957.218,164.029 987.824,162.339L987.932,162.333C1002.38,161.535 1013.09,160.044 1013.09,168.012C1013.09,174.794 1002.69,175.73 988.23,177.02C973.495,178.335 963.14,179.259 963.14,170.207L938.051,172.446C938.051,197.339 956.297,200.237 988.23,197.387C1018.85,194.654 1038.36,188.387 1038.36,165.757L1038.41,165.753C1038.41,143.123 1019.24,142.488 988.635,144.178C988.617,144.179 988.6,144.18 988.582,144.181L988.582,144.181C988.564,144.183 988.546,144.183 988.528,144.184C974.08,144.982 964.456,146.433 964.456,139.539C964.456,133.882 973.72,133.055 988.176,131.765C1003,130.442 1012.12,129.628 1012.12,138.68L1037.21,136.44C1037.21,111.548 1020.11,108.548 988.176,111.398C957.552,114.132 939.191,120.296 939.191,141.795Z" style="fill:rgb(7,0,61);fill-rule:nonzero;"/>
        <path d="M67.086,204.43L106.041,279.705L81.682,281.879L77.229,273.225L31.361,277.318L26.863,286.771L2.445,288.951L41.355,206.727L67.086,204.43ZM39.903,258.905L68.319,256.369L54.183,228.89L39.903,258.905ZM40.501,205.445L0.25,290.504L27.714,288.053L32.212,278.6L76.375,274.659L80.827,283.313L108.237,280.867L67.938,202.996L40.501,205.445ZM54.177,231.974L66.129,255.206L42.103,257.35L54.177,231.974Z" style="fill:rgb(7,0,61);fill-rule:nonzero;"/>
        <path d="M189.66,193.49C205.884,192.042 219.084,203.96 219.084,220.057C219.084,224.782 217.914,229.582 215.702,233.938C213.56,238.156 210.447,241.963 206.7,244.948L205.726,245.724L219.069,269.618L193.907,271.863L183.073,252.463L150.658,255.356L150.658,275.723L128.305,277.718L128.305,198.966L189.66,193.49ZM150.657,237.705L185.099,234.631C191.513,234.059 196.731,228.416 196.731,222.052C196.731,215.688 191.513,210.976 185.099,211.549L150.657,214.623L150.657,237.705ZM126.936,197.731L126.936,279.198L152.026,276.959L152.026,256.592L182.247,253.895L193.082,273.295L221.339,270.773L207.494,245.983C215.332,239.739 220.452,230.191 220.452,219.935C220.452,203.089 206.639,190.617 189.66,192.133L126.936,197.731ZM152.026,215.858L185.099,212.907C190.758,212.402 195.362,216.559 195.362,222.174C195.362,227.789 190.758,232.768 185.099,233.274L152.026,236.225L152.026,215.858Z" style="fill:rgb(7,0,61);fill-rule:nonzero;"/>
        <path d="M326.676,181.262L326.676,198.913L267.373,204.206L267.373,217.105L322.114,212.22L322.114,229.871L267.373,234.756L267.373,247.655L326.676,242.363L326.676,260.014L245.02,267.302L245.02,188.55L326.676,181.262ZM243.652,187.314L243.652,268.782L328.044,261.25L328.044,240.883L268.742,246.175L268.742,235.992L323.483,231.107L323.483,210.74L268.742,215.625L268.742,205.442L328.044,200.149L328.044,179.782L243.652,187.314Z" style="fill:rgb(7,0,61);fill-rule:nonzero;"/>
        <path d="M401.738,172.3C419.256,170.737 431.742,172.675 439.912,178.226C448.568,184.107 452.776,194.299 452.776,209.384C452.776,217.661 451.7,224.475 449.487,230.216C447.37,235.707 444.246,240.107 439.935,243.667C435.802,247.081 430.607,249.699 424.052,251.672C417.965,253.503 410.666,254.781 401.738,255.578C384.337,257.131 372.436,255.488 364.284,250.407C355.071,244.664 350.592,234.228 350.592,218.504C350.592,203.416 354.804,192.472 363.468,185.049C371.651,178.038 384.169,173.868 401.738,172.3ZM401.738,237.927C415.452,236.703 428.142,232.664 428.142,211.582C428.142,202.313 425.933,196.422 421.19,193.043C417.025,190.076 411.026,189.122 401.738,189.951C392.507,190.775 386.513,192.797 382.305,196.509C377.541,200.708 375.226,207.184 375.226,216.305C375.226,225.426 377.541,231.489 382.305,234.838C386.513,237.798 392.507,238.751 401.738,237.927ZM349.224,218.626C349.224,252.571 369.752,259.79 401.738,256.936C435.897,253.887 454.144,243.207 454.144,209.262C454.144,177.58 435.897,167.894 401.738,170.942C367.471,174 349.224,186.944 349.224,218.626ZM376.594,216.183C376.594,198.079 385.718,192.739 401.738,191.309C417.935,189.864 426.774,193.601 426.774,211.705C426.774,229.808 417.65,235.149 401.738,236.569C385.718,237.999 376.594,234.287 376.594,216.183Z" style="fill:rgb(7,0,61);fill-rule:nonzero;"/>
        <path d="M532.965,162.851C549.189,161.403 562.388,173.321 562.388,189.418C562.388,205.515 549.189,219.788 532.965,221.236L500.804,224.107L500.804,244.474L478.452,246.468L478.452,167.716L532.965,162.851ZM500.804,206.455L528.403,203.992C534.817,203.42 540.035,197.777 540.035,191.413C540.035,185.049 534.817,180.337 528.403,180.91L500.804,183.373L500.804,206.455ZM477.083,166.481L477.083,247.948L502.173,245.709L502.173,225.342L532.965,222.594C549.943,221.079 563.756,206.141 563.756,189.296C563.756,172.45 549.943,159.978 532.965,161.493L477.083,166.481ZM502.173,184.608L528.403,182.268C534.062,181.762 538.667,185.92 538.667,191.535C538.667,197.15 534.062,202.129 528.403,202.634L502.173,204.975L502.173,184.608Z" style="fill:rgb(7,0,61);fill-rule:nonzero;"/>
        <path d="M635.649,153.687L674.604,228.962L650.245,231.136L645.793,222.482L599.924,226.575L595.427,236.028L571.009,238.208L609.918,155.984L635.649,153.687ZM608.467,208.162L636.883,205.626L622.747,178.147L608.467,208.162ZM609.065,154.702L568.814,239.761L596.278,237.31L600.775,227.857L644.938,223.916L649.39,232.57L676.8,230.124L636.502,152.253L609.065,154.702ZM622.741,181.231L634.693,204.463L610.667,206.607L622.741,181.231Z" style="fill:rgb(7,0,61);fill-rule:nonzero;"/>
        <path d="M740.507,142.066C770.66,139.375 786.113,146.945 790.338,166.585L764.783,168.865C760.528,159.3 750.157,158.856 740.507,159.717C731.276,160.541 725.282,162.563 721.073,166.274C716.31,170.474 713.995,176.95 713.995,186.071C713.995,195.192 716.31,201.254 721.073,204.604C725.282,207.564 731.276,208.516 740.507,207.692C751.54,206.708 758.273,203.856 762.336,198.445L764.111,196.081L744.102,197.867L744.102,182.479L791.544,178.244L791.544,218.526L776.035,219.91L776.035,215.504L774.051,216.672C766.291,221.238 755.632,223.994 740.507,225.343C723.106,226.896 711.205,225.253 703.053,220.172C693.84,214.429 689.361,203.993 689.361,188.269C689.361,173.181 693.573,162.238 702.237,154.815C710.42,147.804 722.938,143.634 740.507,142.066ZM687.993,188.391C687.993,222.336 708.52,229.556 740.507,226.701C754.695,225.435 766.135,222.85 774.666,217.83L774.666,221.39L792.913,219.761L792.913,176.765L742.734,181.243L742.734,199.347L761.267,197.693C757.105,203.234 750.02,205.486 740.507,206.335C724.486,207.764 715.363,204.053 715.363,185.949C715.363,167.845 724.486,162.505 740.507,161.075C752.589,159.996 760.575,161.804 763.854,170.306L791.994,167.795C787.91,145.051 770.236,138.055 740.507,140.708C706.24,143.766 687.993,156.71 687.993,188.391Z" style="fill:rgb(7,0,61);fill-rule:nonzero;"/>
        <path d="M910.046,129.198L910.046,168.574C910.046,176.589 908.858,183.598 906.515,189.407C904.352,194.773 901.117,199.312 896.901,202.897C889.397,209.279 878.491,213.029 863.56,214.361C848.587,215.698 837.655,213.896 830.14,208.855C825.92,206.023 822.682,202.062 820.517,197.082C818.174,191.692 816.986,184.895 816.986,176.879L816.986,137.503L839.339,135.508L839.339,174.884C839.339,183.899 841.549,189.961 846.095,193.417C849.993,196.379 855.543,197.426 863.56,196.71C871.535,195.998 877.061,193.963 880.949,190.305C885.487,186.035 887.693,179.579 887.693,170.569L887.693,131.193L910.046,129.198ZM886.324,129.957L886.324,170.691C886.324,188.795 877.201,194.135 863.56,195.352C849.83,196.578 840.707,192.866 840.707,174.762L840.707,134.028L815.617,136.267L815.617,177.001C815.617,210.946 836.145,218.166 863.56,215.719C890.886,213.28 911.414,202.396 911.414,168.452L911.414,127.718L886.324,129.957Z" style="fill:rgb(7,0,61);fill-rule:nonzero;"/>
        <path d="M983.045,120.412C1001.05,118.806 1011.78,119.41 1018.91,122.434C1022.91,124.128 1025.78,126.612 1027.7,130.027C1029.57,133.35 1030.56,137.56 1030.7,142.863L1008.29,144.862C1007.87,140.844 1005.45,138.478 1000.94,137.647C996.629,136.851 990.634,137.386 983.045,138.064C975.628,138.726 969.769,139.249 965.531,140.354C963.658,140.842 957.957,142.329 957.957,147.318C957.957,150.835 960.026,152.883 964.284,153.581C967.822,154.161 972.659,153.858 978.782,153.476L983.457,153.196C997.357,152.428 1010.56,151.974 1019.34,154.803C1023.58,156.168 1026.63,158.229 1028.66,161.104C1030.66,163.921 1031.71,167.553 1031.88,172.176L1031.86,172.178L1031.86,173.536C1031.86,183.78 1027.79,190.761 1019.08,195.507C1011.52,199.616 1000.43,202.139 983.099,203.686C964.94,205.306 954.038,204.715 946.647,201.708C942.486,200.015 939.482,197.537 937.464,194.133C935.493,190.808 934.456,186.612 934.307,181.337L956.715,179.337C957.178,183.341 959.799,185.691 964.687,186.503C969.286,187.267 975.687,186.696 983.099,186.034C998.326,184.675 1009.33,183.693 1009.33,175.546C1009.33,171.563 1007.06,169.219 1002.38,168.379C998.484,167.678 993.09,168.009 986.843,168.392L982.74,168.634C966.236,169.545 955.165,169.589 947.42,167.117C939.127,164.469 935.428,158.983 935.428,149.329C935.428,139.572 939.308,132.922 947.637,128.4C954.997,124.404 965.917,121.941 983.045,120.412ZM934.06,149.451C934.06,170.949 952.086,171.686 982.693,169.995L982.8,169.989C997.249,169.192 1007.96,167.701 1007.96,175.669C1007.96,182.451 997.555,183.386 983.099,184.676C968.364,185.991 958.009,186.916 958.009,177.864L932.92,180.103C932.92,204.996 951.166,207.893 983.099,205.043C1013.72,202.31 1033.22,196.044 1033.22,173.414L1033.28,173.409C1033.28,150.779 1014.11,150.145 983.504,151.835C983.486,151.836 983.468,151.837 983.45,151.838L983.451,151.838C983.432,151.839 983.415,151.84 983.397,151.841C968.949,152.638 959.325,154.09 959.325,147.196C959.325,141.538 968.589,140.712 983.045,139.421C997.867,138.099 1006.99,137.284 1006.99,146.336L1032.08,144.097C1032.08,119.204 1014.98,116.205 983.045,119.055C952.42,121.788 934.06,127.952 934.06,149.451Z" style="fill:rgb(7,0,61);fill-rule:nonzero;"/>
    </g>
</svg>
