<?xml version="1.0" encoding="UTF-8"?>
<svg width="677px" height="780px" viewBox="0 0 677 780" version="1.1" xmlns="http://www.w3.org/2000/svg" xmlns:xlink="http://www.w3.org/1999/xlink">
    <title>Combined Shape</title>
    <g id="Square" transform="translate(-3020.000000, -49.000000)" fill="#ffffff" fill-rule="nonzero">
      <path d="M3151.11669,712.437479 C3155.2844,719.734608 3158.57749,725.030197 3160.99596,728.324248 C3163.73556,732.055694 3168.17959,737.298349 3174.32804,744.052215 C3162.48257,755.524113 3150.80261,766.812725 3139.28815,777.918052 C3120.36555,796.168283 3064.57376,831.299403 3062.15576,828.881328 C3059.73775,826.463252 3094.13901,771.425499 3113.11751,751.746631 C3125.55403,738.851156 3138.22043,725.748106 3151.11669,712.437479 Z M3532.67792,281.092462 C3532.14554,302.113766 3536.58786,317.860153 3546.00486,328.331621 C3555.42187,338.803089 3569.60793,346.078196 3588.56303,350.156939 C3571.03787,382.448401 3561.36609,414.736773 3559.54769,447.022054 C3554.50788,536.502855 3610.6706,606.887284 3561.7039,696.34055 C3504.52926,800.788244 3449.51627,764.030165 3356.75959,828.841113 C3246.64784,758.19502 3214.97718,800.813126 3152.49906,696.34055 C3105.51924,617.783411 3159.41231,532.206738 3155.31041,447.022054 C3153.80796,415.820458 3144.12793,383.532086 3126.27033,350.156939 C3144.67697,345.65384 3158.6064,338.378733 3168.05861,328.331621 C3177.51083,318.284509 3181.99832,302.538122 3181.5211,281.092462 C3226.87374,307.059188 3260.02298,320.042551 3280.9688,320.042551 C3301.91463,320.042551 3327.39726,308.482032 3357.41668,285.360993 C3386.45568,308.977953 3411.87162,320.538472 3433.6645,320.042551 C3455.45738,319.54663 3488.46185,306.563267 3532.67792,281.092462 Z M3564.86521,709.741492 C3577.76147,723.052118 3590.42787,736.155169 3602.86439,749.050644 C3621.84289,768.729511 3656.24415,823.767265 3653.82614,826.18534 C3651.40814,828.603416 3595.61635,793.472295 3576.69375,775.222065 C3565.17929,764.116738 3553.49933,752.828125 3541.65386,741.356227 C3547.80231,734.602362 3552.24634,729.359706 3554.98594,725.62826 C3557.40441,722.33421 3560.6975,717.03862 3564.86521,709.741492 Z M3357.86555,325.109998 L3357.59994,325.303632 C3350.17825,330.777867 3345.33531,339.780965 3345.33531,349.959677 L3345.33956,350.481701 L3345.35227,351.001584 L3345.33531,351.00152 L3345.33537,351.948797 C3342.53698,350.770213 3339.47605,350.120886 3336.26861,350.120886 C3330.15428,350.120886 3324.5724,352.480517 3320.32722,356.366636 C3320.62485,356.355351 3320.92387,356.349659 3321.22417,356.349659 C3334.38533,356.349659 3345.07949,365.837576 3345.29205,380.809388 L3345.29528,381.264753 L3345.29524,398.14002 L3345.31532,398.131596 L3345.3354,398.123153 L3345.33531,545.646004 L3221.53911,545.646245 C3206.25054,545.646245 3196.53565,534.874751 3196.53565,521.587442 C3196.53565,521.287384 3196.54136,520.988609 3196.55313,520.691308 C3192.65241,524.934833 3190.28478,530.513465 3190.28478,536.624193 C3190.28478,539.773552 3190.91367,542.781576 3192.05761,545.536236 C3191.64434,545.520104 3191.22893,545.51196 3190.81154,545.51196 C3180.67832,545.51196 3171.71025,550.312148 3166.22934,557.678269 L3165.96261,558.042596 L3166.15624,558.308223 C3171.45083,565.486784 3180.04658,570.25286 3189.81426,570.557673 L3190.31193,570.569317 L3190.78487,570.573496 L3190.7853,570.707496 L3192.27384,570.707438 C3191.09529,573.505918 3190.44598,576.56693 3190.44598,579.774469 C3190.44598,585.888985 3192.80555,591.471032 3196.69155,595.716337 C3196.68026,595.418693 3196.67457,595.11967 3196.67457,594.819363 C3196.67457,581.657803 3206.1622,570.963331 3221.13357,570.750758 L3221.58892,570.747533 L3238.46368,570.747568 L3238.45526,570.727486 L3238.44682,570.707414 L3345.33531,570.707004 L3345.3354,718.283488 L3345.31532,718.275046 L3345.29524,718.266621 L3345.29528,735.141887 L3345.29205,735.597253 C3345.07949,750.569066 3334.38533,760.056982 3321.22417,760.056982 C3320.92387,760.056982 3320.62485,760.05129 3320.32722,760.040005 C3324.5724,763.926124 3330.15428,766.285756 3336.26861,766.285756 C3339.28738,766.285756 3342.17636,765.710573 3344.83883,764.660311 L3345.33537,764.457844 L3345.33531,765.405122 L3345.35227,765.405057 L3345.33956,765.92494 L3345.33531,766.446964 C3345.33531,776.458812 3350.02077,785.333275 3357.23702,790.83095 L3357.59994,791.103009 L3357.86555,791.296643 L3358.22987,791.029904 C3365.59577,785.548826 3370.39582,776.580495 3370.39582,766.446964 L3370.39156,765.924924 L3370.37885,765.405024 L3370.39582,765.405122 L3370.39585,764.629432 L3370.89017,764.830781 C3373.54064,765.875227 3376.41488,766.446964 3379.4176,766.446964 C3385.52814,766.446964 3391.10661,764.079263 3395.35001,760.178424 C3395.05271,760.190202 3394.75395,760.195911 3394.4539,760.195911 C3381.29986,760.195911 3370.61149,750.674058 3370.39904,735.648693 L3370.39582,735.191698 L3370.39556,571.113004 L3476.82498,571.113885 L3476.81654,571.133957 L3476.80812,571.154039 L3493.68288,571.154004 L3494.13823,571.157229 C3509.1096,571.369803 3518.59723,582.064274 3518.59723,595.225834 C3518.59723,595.526141 3518.59154,595.825164 3518.58025,596.122808 C3522.46626,591.877503 3524.82582,586.295457 3524.82582,580.18094 C3524.82582,577.16208 3524.25065,574.273015 3523.20042,571.61046 L3522.99796,571.113909 L3524.4865,571.113968 L3524.48693,570.979968 L3524.95988,570.975788 L3525.45754,570.964144 C3535.05681,570.664587 3543.52422,566.056276 3548.83877,559.083837 L3549.11556,558.714694 L3549.30919,558.449067 L3549.04246,558.08474 C3543.56155,550.718619 3534.59348,545.918431 3524.46026,545.918431 C3524.04287,545.918431 3523.62746,545.926575 3523.21419,545.942707 C3524.35813,543.188047 3524.98702,540.180023 3524.98702,537.030664 C3524.98702,530.919936 3522.61939,525.341304 3518.71867,521.097779 L3518.73183,521.544812 L3518.73615,521.993913 L3518.73324,522.391769 C3518.54322,535.364537 3509.06088,545.841318 3494.18512,546.049557 L3493.73269,546.052716 L3370.39556,546.052004 L3370.39582,381.214942 C3370.39582,365.925916 3381.16699,356.21073 3394.4539,356.21073 C3394.75395,356.21073 3395.05271,356.216439 3395.35001,356.228218 C3391.10661,352.327379 3385.52814,349.959677 3379.4176,349.959677 C3376.41488,349.959677 3373.54064,350.531415 3370.89017,351.575861 L3370.39585,351.77721 L3370.39582,351.00152 L3370.37885,351.001617 C3370.39013,350.655747 3370.39582,350.308402 3370.39582,349.959677 C3370.39582,339.660022 3365.4371,330.564085 3357.86555,325.109998 Z M3357.69516,350.20737 L3357.78404,351.532856 C3359.45794,376.635645 3360.30957,397.538604 3360.33893,414.24173 L3360.33903,555.202004 L3360.33893,555.70264 L3469.58059,556.109111 L3470.37249,556.110129 C3483.10789,556.142691 3498.96117,556.95674 3517.93234,558.552277 L3519.12209,558.653016 L3520.29641,558.753755 L3519.06771,558.860598 C3500.29839,560.481204 3484.37245,561.325636 3471.28988,561.393896 L3470.42192,561.397296 L3469.58059,561.398398 L3370.39582,561.204637 L3360.33972,561.204055 L3360.33972,701.274118 C3360.33972,717.827251 3359.51746,738.580215 3357.87293,763.533011 L3357.78404,764.873785 L3357.69516,766.199272 L3357.60155,764.822375 C3355.96275,740.567058 3355.11356,720.014849 3355.05397,703.165745 L3355.05144,702.215977 L3355.05059,701.274118 L3355.05019,561.204637 L3246.00622,560.991927 L3245.15966,560.990825 C3231.83329,560.956312 3215.51731,560.110746 3196.21173,558.454127 L3194.9754,558.347283 L3196.157,558.246544 C3215.77713,556.584527 3232.12793,555.736898 3245.2094,555.703658 L3246.00622,555.70264 L3355.05019,555.703658 L3355.05059,415.132522 L3355.05144,414.190664 C3355.08236,396.850759 3355.9636,375.522993 3357.69516,350.20737 Z M3316,603 C3314.29026,603.685237 3311.32671,604.370473 3307.10934,605.05571 C3303.54081,605.635526 3300.2171,605.970036 3297.13821,606.059238 L3296.30459,606.077483 L3295.4831,606.083565 L3230,606.083565 L3230,607.796657 L3232.22266,607.796657 L3232.66679,607.804767 C3234.43116,607.869641 3236.04985,608.323762 3237.52286,609.167131 C3241.0492,610.987291 3242.92257,613.71084 3243.14297,617.337777 L3243.1595,617.703482 L3243.16501,618.075209 L3243.16501,713.494429 L3243.14194,713.91571 C3242.94292,716.704826 3241.83928,719.105485 3239.83101,721.117688 C3237.91882,723.033626 3235.65514,724.08086 3233.03998,724.25939 L3232.62414,724.28036 L3232.22266,724.286908 L3230,724.286908 L3230,726 L3281.97614,726 L3281.80517,724.286908 L3279.75348,724.286908 L3279.35183,724.28036 C3276.5576,724.188689 3274.12687,723.134464 3272.05964,721.117688 C3270.09085,719.196949 3269.01696,716.922265 3268.83798,714.293636 L3268.81784,713.896687 L3268.81113,713.494429 L3268.81113,670.495822 L3291.72167,670.495822 L3292.19198,670.514828 C3296.08484,670.721785 3299.31906,672.143025 3301.89463,674.778552 C3304.36718,677.308657 3305.69855,680.471287 3305.88875,684.266446 L3305.90658,684.744135 L3305.91252,685.228412 L3305.91252,686.598886 L3307.62227,686.598886 L3307.62227,647.026462 L3305.91252,647.026462 L3305.91252,648.568246 L3305.9069,649.034704 C3305.80933,653.050874 3304.44341,656.378676 3301.80914,659.018106 C3299.28399,661.548211 3296.12754,662.959231 3292.33981,663.251166 L3291.86305,663.28183 L3291.37972,663.300835 L3268.81113,663.300835 L3268.81113,613.449861 L3298.04771,613.449861 L3298.56277,613.46687 C3303.33487,613.674097 3307.12408,615.238762 3309.93042,618.160864 C3312.63652,620.978605 3314.08289,624.662567 3314.26952,629.212751 L3314.28507,629.721891 L3314.29026,630.238162 L3314.29026,631.951254 L3316,631.951254 L3316,603 Z M3504,603 C3502.40793,603.684284 3499.53652,604.368567 3495.38576,605.052851 C3491.87358,605.631861 3488.58531,605.965905 3485.52094,606.054983 L3484.69076,606.073204 L3483.87167,606.079276 L3415.12833,606.079276 L3414.31262,606.065896 C3406.48555,605.910661 3400.34291,605.004634 3395.88469,603.347814 L3395.4295,603.173742 L3395,603 L3395,632.766342 L3396.70579,632.766342 L3396.70579,630.713492 L3396.71127,630.186039 C3396.81349,625.295431 3398.34688,621.308523 3401.31142,618.225314 C3404.17374,615.248421 3407.97492,613.609537 3412.71495,613.308663 L3413.2264,613.281547 L3413.76369,613.264256 L3436.79186,613.264256 L3436.79186,713.853964 L3436.75071,714.278648 C3436.44552,716.94935 3435.29361,719.259805 3433.29499,721.210014 C3431.39155,723.067356 3429.18556,724.084471 3426.67703,724.261361 L3426.27843,724.282309 L3425.8748,724.289291 L3423.65728,724.289291 L3423.65728,726 L3475.5133,726 L3475.34272,724.289291 L3473.29578,724.289291 L3472.89523,724.282929 C3470.10993,724.193859 3467.71319,723.169553 3465.70501,721.210014 C3463.80156,719.352673 3462.71265,717.121897 3462.43828,714.517688 L3462.40173,714.103395 L3462.37872,713.682893 L3462.37872,613.264256 L3485.23631,613.264256 L3485.81912,613.2896 C3489.09487,613.469119 3491.91416,614.259001 3494.277,615.659249 C3499.37886,618.489696 3502.04574,623.190612 3502.27764,629.761998 L3502.29007,630.234564 L3502.29421,630.713492 L3502.29421,632.766342 L3504,632.766342 L3504,603 Z M3271.61826,397 C3261.07054,397 3252.64938,399.725275 3246.35477,405.175825 C3240.06016,410.626374 3236.57261,417.836996 3235.89212,426.807692 C3235.66528,427.943224 3235.55187,429.078755 3235.55187,430.214287 C3235.55187,440.642246 3240.69196,449.478572 3250.97214,456.72326 L3251.50846,457.096566 L3252.05394,457.467033 L3281.6556,477.054945 L3282.23416,477.435121 C3286.80928,480.465626 3290.10398,483.234506 3292.11826,485.741758 C3294.21646,488.35348 3295.26556,491.305861 3295.26556,494.598901 C3295.26556,500.163004 3293.139,504.761905 3288.88589,508.395604 C3284.63278,512.029304 3278.70678,513.846154 3271.10788,513.846154 C3261.35408,513.846154 3253.67012,510.922161 3248.05602,505.074176 C3242.44191,499.22619 3239.63485,492.384616 3239.63485,484.549451 C3239.63485,484.095239 3239.64903,483.641026 3239.67739,483.186814 L3239.73055,482.505495 L3239.80498,481.824176 L3238.27386,481.824176 L3237.94939,482.370595 C3234.6498,488.053019 3233,494.854396 3233,502.774726 C3233,505.84066 3233.39696,508.452381 3234.19087,510.60989 C3237.25311,513.789378 3242.04495,516.315935 3248.56639,518.18956 C3255.08783,520.063187 3262.2047,521 3269.91701,521 C3283.52697,521 3294.44329,517.792125 3302.66598,511.376374 C3310.88866,504.960624 3315,495.734433 3315,483.697802 C3315,473.275936 3310.23642,464.761801 3300.70925,458.155399 L3300.20342,457.809454 L3299.6888,457.467033 L3267.19502,436.346154 L3266.6682,436.006252 C3261.63592,432.727847 3258.35233,429.661661 3256.81743,426.807692 C3255.79668,424.990843 3255.28631,422.776557 3255.28631,420.164835 C3255.28631,417.553114 3256.30705,414.941392 3258.34855,412.329671 C3262.31812,406.879122 3268.72614,404.153846 3277.57261,404.153846 C3284.83126,404.153846 3290.64385,405.942308 3295.01037,409.519231 C3299.12005,412.885747 3301.29576,417.283278 3301.5375,422.711824 L3301.5545,423.223771 L3301.56017,423.741758 L3303.26141,423.741758 L3305.47303,398.703297 L3294.75519,398.703297 L3293.74051,398.579464 C3284.9992,397.526488 3277.62512,397 3271.61826,397 Z M3451.31783,396 L3449.78295,396 L3449.76096,396.21044 C3449.34996,399.785739 3446.71123,406.759042 3441.84477,417.130347 L3441.55011,417.756703 L3441.25581,418.379166 L3401.86046,507.725 L3401.57202,508.249099 C3399.91361,511.177169 3397.84955,513.394135 3395.37984,514.9 C3393.0725,516.306862 3390.76516,517.093051 3388.45782,517.258564 L3387.99635,517.28339 L3387.53488,517.291667 L3386,517.291667 L3386,519 L3422.49612,519 L3422.49612,517.291667 L3421.13178,517.291667 L3420.76128,517.2859 C3418.44446,517.212869 3416.69199,516.446041 3415.50388,514.985416 C3414.25323,513.447916 3413.62791,512.024305 3413.62791,510.714583 C3413.62791,509.69591 3413.79985,508.625565 3414.14375,507.503549 L3414.30166,507.019521 L3414.48062,506.529167 L3423.34884,485.516667 L3463.25581,485.516667 L3471.6124,506.529167 L3471.79137,506.984722 C3472.24053,508.199537 3472.46512,509.414351 3472.46512,510.629166 C3472.46512,511.995833 3471.86822,513.447916 3470.67442,514.985416 C3469.60332,516.364895 3468.00594,517.125525 3465.8823,517.267305 L3465.50207,517.2859 L3465.13178,517.291667 L3463.5969,517.291667 L3463.5969,519 L3518,519 L3518,517.291667 L3516.46512,517.291667 L3515.98417,517.283095 C3513.4223,517.191669 3510.91078,516.368831 3508.44961,514.814584 C3506.11798,513.342137 3504.14791,511.213244 3502.53941,508.427907 L3502.24205,507.897963 L3501.96899,507.383333 L3451.31783,396 Z M3443.51,436 L3460,478 L3426,478 L3443.51,436 Z M3688.79701,201.204282 C3699.73491,212.142503 3699.73424,229.877525 3688.79553,240.816563 C3680.77804,248.834299 3669.10977,250.975815 3659.1427,247.24091 L3599.40062,310.718469 L3600.7872,312.105095 C3618.71519,330.033615 3636.17159,348.433728 3653.15642,367.305432 L3648.91221,371.549764 C3627.67745,351.920609 3611.18343,336.348484 3599.43016,324.83339 L3599.38267,324.882162 L3598.28906,325.975463 C3597.91858,326.345838 3597.55301,326.711295 3597.19236,327.071835 L3595.08742,329.176059 L3594.8326,329.430788 L3594.8326,329.430788 L3592.15121,332.111097 L3591.9185,332.343696 L3591.9185,332.343696 L3589.90711,334.354106 L3589.69284,334.568264 L3589.69284,334.568264 L3588.64913,335.611392 L3588.44591,335.814485 L3588.44591,335.814485 L3587.07503,337.184501 C3586.69625,337.563025 3586.32854,337.930484 3585.97188,338.286878 L3584.60422,339.653442 C3584.27705,339.98033 3583.96094,340.296153 3583.6559,340.600911 C3574.34615,338.948489 3566.61383,335.561984 3560.45896,330.441397 C3556.6081,327.237645 3551.56928,321.306611 3545.34251,312.648296 C3549.78877,308.196699 3557.46049,300.364788 3566.19185,291.593959 C3550.2751,275.44252 3534.70263,258.946666 3519.47365,242.107326 L3523.71785,237.862995 C3555.48432,267.762911 3574.67778,286.013846 3581.29821,292.615803 L3579.59581,290.913068 L3642.93138,231.300733 C3638.96489,221.238172 3641.04981,209.342115 3649.18592,201.205763 C3660.12463,190.266725 3677.85912,190.266062 3688.79701,201.204282 Z M3067.81408,201.205763 C3075.49642,208.888333 3077.78372,219.922928 3074.67581,229.60096 L3074.53082,230.03992 L3136.37418,288.248869 C3144.15744,280.608779 3162.49449,263.190534 3191.38534,235.994134 L3192.26405,235.167008 L3196.50825,239.411339 C3181.27927,256.250678 3165.7068,272.746532 3149.78979,288.897713 C3158.52126,297.668647 3166.19309,305.500667 3170.63939,309.952309 C3164.41262,318.610624 3159.3738,324.541657 3155.52294,327.745409 C3149.36807,332.865996 3141.63575,336.252501 3132.32601,337.904923 C3132.02968,337.608878 3131.72291,337.302392 3131.40571,336.985465 L3130.7574,336.337688 L3130.59097,336.171393 L3130.59097,336.171393 L3129.37728,334.958605 L3129.19694,334.778388 L3129.19694,334.778388 L3128.26914,333.851204 C3128.14254,333.724679 3128.01477,333.596993 3127.88585,333.468148 L3125.86502,331.448459 C3125.7245,331.308012 3125.58282,331.166405 3125.43998,331.023638 L3123.67026,329.254748 C3123.51815,329.1027 3123.36487,328.949492 3123.21044,328.795123 L3121.78922,327.374484 C3121.62783,327.213155 3121.46528,327.050666 3121.30157,326.887016 L3119.28139,324.867536 C3118.82009,324.406388 3118.35055,323.93699 3117.87276,323.459342 L3116.59962,322.186567 L3116.55174,322.137403 C3104.96401,333.490313 3088.76813,348.786775 3067.96411,368.02679 L3067.06969,368.853776 L3062.82548,364.609445 C3078.8112,346.84784 3095.21465,329.503979 3112.03583,312.57786 L3115.1947,309.409108 L3116.60275,308.00012 L3058.9913,246.787371 C3048.78663,251.130789 3036.5281,249.140445 3028.20447,240.816563 C3017.26576,229.877525 3017.26509,212.142503 3028.20299,201.204282 C3039.14088,190.266062 3056.87537,190.266725 3067.81408,201.205763 Z M3367.34115,49 L3367.34062,165.046003 L3482.37495,165.046231 L3482.37495,184.053803 L3367.34062,184.053003 L3367.34115,283.093259 C3361.35339,278.661903 3358.04524,276.446225 3357.41668,276.446225 C3356.78813,276.446225 3353.76109,278.661903 3348.33557,283.093259 L3348.33519,184.053003 L3233.30178,184.053803 L3233.30178,165.046231 L3348.33519,165.046003 L3348.33557,49 L3367.34115,49 Z" id="Combined-Shape"></path>
    </g>
</svg>
